<mxfile host="app.diagrams.net" modified="2021-09-17T09:04:55.184Z" agent="5.0 (Windows NT 10.0; Win64; x64) AppleWebKit/537.36 (KHTML, like Gecko) Chrome/93.0.4577.82 Safari/537.36" etag="r6jH8wePX4YJ_9mjj7AN" version="15.2.7" type="github">
  <diagram id="3228e29e-7158-1315-38df-8450db1d8a1d" name="Page-1">
    <mxGraphModel dx="1673" dy="934" grid="1" gridSize="10" guides="1" tooltips="1" connect="1" arrows="1" fold="1" page="1" pageScale="1" pageWidth="1169" pageHeight="827" background="none" math="0" shadow="0">
      <root>
        <mxCell id="0" />
        <mxCell id="1" parent="0" />
        <mxCell id="l1rXLmj31TUmA5_F8zvS-21693" value="" style="group" parent="1" vertex="1" connectable="0">
          <mxGeometry x="350" y="120" width="520" height="520" as="geometry" />
        </mxCell>
        <mxCell id="21659" value="" style="ellipse;whiteSpace=wrap;html=1;aspect=fixed;rounded=1;shadow=0;glass=0;labelBackgroundColor=#FFFFFF;strokeColor=none;strokeWidth=2;fillColor=#67c23a;gradientColor=none;fontFamily=Helvetica;fontSize=25;fontColor=#2F5B7C;align=center;" parent="l1rXLmj31TUmA5_F8zvS-21693" vertex="1">
          <mxGeometry width="520" height="520" as="geometry" />
        </mxCell>
        <mxCell id="l1rXLmj31TUmA5_F8zvS-21688" value="" style="ellipse;whiteSpace=wrap;html=1;aspect=fixed;rounded=1;shadow=0;glass=0;labelBackgroundColor=none;strokeColor=none;strokeWidth=2;fillColor=#1a73e8;gradientColor=none;fontFamily=Helvetica;fontSize=25;fontColor=#44C2DB;align=center;labelPosition=right;verticalLabelPosition=middle;verticalAlign=middle;" parent="l1rXLmj31TUmA5_F8zvS-21693" vertex="1">
          <mxGeometry x="136.7466609142713" y="68.37333045713564" width="383.2533390857287" height="383.2533390857287" as="geometry" />
        </mxCell>
        <mxCell id="l1rXLmj31TUmA5_F8zvS-21687" value="" style="ellipse;whiteSpace=wrap;html=1;aspect=fixed;rounded=1;shadow=0;glass=0;labelBackgroundColor=none;strokeColor=none;strokeWidth=2;fillColor=#e6a23c;gradientColor=none;fontFamily=Helvetica;fontSize=25;fontColor=#2F5B7C;align=center;labelPosition=right;verticalLabelPosition=middle;verticalAlign=middle;" parent="l1rXLmj31TUmA5_F8zvS-21693" vertex="1">
          <mxGeometry x="252.65742688166245" y="126.3287134408312" width="267.3425731183376" height="267.3425731183376" as="geometry" />
        </mxCell>
        <mxCell id="21662" value="" style="ellipse;whiteSpace=wrap;html=1;aspect=fixed;rounded=1;shadow=0;glass=0;labelBackgroundColor=#FFFFFF;strokeColor=none;strokeWidth=2;fillColor=#f56c6c;gradientColor=none;fontFamily=Helvetica;fontSize=25;fontColor=#2F5B7C;align=center;" parent="l1rXLmj31TUmA5_F8zvS-21693" vertex="1">
          <mxGeometry x="398.48064858257385" y="199.24032429128692" width="121.51935141742618" height="121.51935141742618" as="geometry" />
        </mxCell>
        <mxCell id="l1rXLmj31TUmA5_F8zvS-21694" value="" style="group" parent="l1rXLmj31TUmA5_F8zvS-21693" vertex="1" connectable="0">
          <mxGeometry x="-180" y="70" width="41" height="411.15" as="geometry" />
        </mxCell>
        <mxCell id="21654" value="1" style="ellipse;whiteSpace=wrap;html=1;aspect=fixed;rounded=1;shadow=0;glass=0;labelBackgroundColor=none;strokeColor=none;strokeWidth=2;fillColor=#f56c6c;gradientColor=none;fontFamily=Helvetica;fontSize=25;fontColor=#2F5B7C;align=left;labelPosition=right;verticalLabelPosition=middle;verticalAlign=middle;" parent="l1rXLmj31TUmA5_F8zvS-21694" vertex="1">
          <mxGeometry y="43.87159879068113" width="40" height="40" as="geometry" />
        </mxCell>
        <mxCell id="21655" value="2" style="ellipse;whiteSpace=wrap;html=1;aspect=fixed;rounded=1;shadow=0;glass=0;labelBackgroundColor=none;strokeColor=none;strokeWidth=2;fillColor=#e6a23c;gradientColor=none;fontFamily=Helvetica;fontSize=25;fontColor=#2F5B7C;align=left;labelPosition=right;verticalLabelPosition=middle;verticalAlign=middle;" parent="l1rXLmj31TUmA5_F8zvS-21694" vertex="1">
          <mxGeometry y="124.3028632402632" width="41" height="41" as="geometry" />
        </mxCell>
        <mxCell id="21657" value="3" style="ellipse;whiteSpace=wrap;html=1;aspect=fixed;rounded=1;shadow=0;glass=0;labelBackgroundColor=none;strokeColor=none;strokeWidth=2;fillColor=#1a73e8;gradientColor=none;fontFamily=Helvetica;fontSize=25;fontColor=#2F5B7C;align=left;labelPosition=right;verticalLabelPosition=middle;verticalAlign=middle;" parent="l1rXLmj31TUmA5_F8zvS-21694" vertex="1">
          <mxGeometry y="204.73412768984528" width="41" height="41" as="geometry" />
        </mxCell>
        <mxCell id="21656" value="4" style="ellipse;whiteSpace=wrap;html=1;aspect=fixed;rounded=1;shadow=0;glass=0;labelBackgroundColor=none;strokeColor=none;strokeWidth=2;fillColor=#67c23a;gradientColor=none;fontFamily=Helvetica;fontSize=25;fontColor=#2F5B7C;align=left;labelPosition=right;verticalLabelPosition=middle;verticalAlign=middle;" parent="l1rXLmj31TUmA5_F8zvS-21694" vertex="1">
          <mxGeometry y="285.16539213942735" width="41" height="41" as="geometry" />
        </mxCell>
        <mxCell id="l1rXLmj31TUmA5_F8zvS-21695" value="所有的错误日志" style="text;html=1;strokeColor=none;fillColor=none;align=center;verticalAlign=middle;whiteSpace=wrap;rounded=0;fontColor=#FFFFFF;fontSize=14;" parent="l1rXLmj31TUmA5_F8zvS-21693" vertex="1">
          <mxGeometry x="429.62" y="245" width="59.24" height="30" as="geometry" />
        </mxCell>
        <mxCell id="l1rXLmj31TUmA5_F8zvS-21708" value="console.warn(警告日志)" style="text;html=1;strokeColor=none;fillColor=none;align=center;verticalAlign=middle;whiteSpace=wrap;rounded=0;fontColor=#FFFFFF;fontSize=14;" parent="l1rXLmj31TUmA5_F8zvS-21693" vertex="1">
          <mxGeometry x="306" y="235" width="60" height="50" as="geometry" />
        </mxCell>
        <mxCell id="l1rXLmj31TUmA5_F8zvS-21709" value="console.info(提示日志)" style="text;html=1;strokeColor=none;fillColor=none;align=center;verticalAlign=middle;whiteSpace=wrap;rounded=0;fontColor=#FFFFFF;fontSize=14;" parent="l1rXLmj31TUmA5_F8zvS-21693" vertex="1">
          <mxGeometry x="179" y="250" width="40" height="20" as="geometry" />
        </mxCell>
        <mxCell id="l1rXLmj31TUmA5_F8zvS-21710" value="console.log(打印日志)" style="text;html=1;strokeColor=none;fillColor=none;align=center;verticalAlign=middle;whiteSpace=wrap;rounded=0;fontColor=#FFFFFF;fontSize=14;" parent="l1rXLmj31TUmA5_F8zvS-21693" vertex="1">
          <mxGeometry x="37" y="240" width="80" height="40" as="geometry" />
        </mxCell>
      </root>
    </mxGraphModel>
  </diagram>
</mxfile>
